<mxfile host="app.diagrams.net" modified="2023-10-17T20:43:33.444Z" agent="Mozilla/5.0 (Windows NT 10.0; Win64; x64) AppleWebKit/537.36 (KHTML, like Gecko) Chrome/118.0.0.0 Safari/537.36" version="22.0.4" etag="bafwjCvhi256jOBqzxLb" type="github">
  <diagram name="PÃ¡gina-1" id="HutiPOtxPZmirNI1u_TK">
    <mxGraphModel>
      <root>
        <mxCell id="0" />
        <mxCell id="1" parent="0" />
      </root>
    </mxGraphModel>
  </diagram>
</mxfile>
